# xmcd
#
# Track frame offsets:
#	150
#	16966
#	35711
#	54438
#	81809
#	96269
#	114983
#	134679
#	150535
#	180697
#	195567
#	226819
#
# Disc length: 3901 seconds
#
# Revision: 0
# Processed by: cddbd v1.5.2PL0 Copyright (c) Steve Scherf et al.
# Submitted via: dBpowerAMP V4.0
#
DISCID=950f3b0c
DTITLE=Lenid Agutin - Live Music Is Alive
DYEAR=1900
DGENRE=Pop
TTITLE0=The Moon
TTITLE1=New York
TTITLE2=Half of a Heart
TTITLE3=Little Jean
TTITLE4=I don`t understand
TTITLE5=New Year
TTITLE6=The old Trolley
TTITLE7=Don`t go out
TTITLE8=On the Lilac Moon
TTITLE9=Papa-Mama
TTITLE10=Good-bye...
TTITLE11=DATA
EXTD=
EXTT0=
EXTT1=
EXTT2=
EXTT3=
EXTT4=
EXTT5=
EXTT6=
EXTT7=
EXTT8=
EXTT9=
EXTT10=
EXTT11=
PLAYORDER=
